<?xml version="1.0" encoding="UTF-8"?>
<svg id="Ebene_1" xmlns="http://www.w3.org/2000/svg" xmlns:xlink="http://www.w3.org/1999/xlink" xmlns:serif="http://www.serif.com/" version="1.1" viewBox="0 0 841.9 595.3">
  <!-- Generator: Adobe Illustrator 30.1.0, SVG Export Plug-In . SVG Version: 2.1.1 Build 136)  -->
  <defs>
    <style>
      .st0 {
        fill: none;
      }

      .st1, .st2, .st3, .st4, .st5, .st6, .st7, .st8, .st9, .st10, .st11, .st12, .st13, .st14, .st15, .st16, .st17, .st18, .st19, .st20, .st21, .st22, .st23, .st24, .st25, .st26, .st27 {
        fill-rule: evenodd;
      }

      .st1, .st2, .st4, .st6 {
        fill: #e5e5db;
      }

      .st2 {
        fill-opacity: .6;
      }

      .st3 {
        fill: #153045;
      }

      .st4 {
        fill-opacity: .8;
      }

      .st5 {
        fill: #293338;
      }

      .st6, .st24 {
        fill-opacity: .4;
      }

      .st28, .st20, .st29, .st26 {
        fill-opacity: .3;
      }

      .st30 {
        fill-opacity: .6;
      }

      .st7, .st31 {
        fill: #ecf6ff;
      }

      .st8 {
        fill: #1e2a32;
        fill-opacity: .8;
      }

      .st32 {
        clip-path: url(#clippath-11);
      }

      .st33 {
        clip-path: url(#clippath-16);
      }

      .st34 {
        clip-path: url(#clippath-10);
      }

      .st35 {
        clip-path: url(#clippath-15);
      }

      .st36 {
        clip-path: url(#clippath-13);
      }

      .st37 {
        clip-path: url(#clippath-14);
      }

      .st38 {
        clip-path: url(#clippath-12);
      }

      .st9, .st29, .st26 {
        fill: #617985;
      }

      .st39 {
        clip-path: url(#clippath-1);
      }

      .st40 {
        clip-path: url(#clippath-3);
      }

      .st41 {
        clip-path: url(#clippath-4);
      }

      .st42 {
        clip-path: url(#clippath-2);
      }

      .st43 {
        clip-path: url(#clippath-7);
      }

      .st44 {
        clip-path: url(#clippath-6);
      }

      .st45 {
        clip-path: url(#clippath-9);
      }

      .st46 {
        clip-path: url(#clippath-8);
      }

      .st47 {
        clip-path: url(#clippath-5);
      }

      .st11 {
        fill: #2d7f58;
      }

      .st12, .st18, .st19, .st24 {
        fill: #182b3c;
      }

      .st13 {
        fill: #eafff7;
      }

      .st14 {
        fill: #ebe8df;
      }

      .st15 {
        fill: #4c5a65;
      }

      .st16 {
        fill: #3affb3;
      }

      .st17 {
        fill: #47a8ff;
      }

      .st18 {
        fill-opacity: .7;
      }

      .st19 {
        fill-opacity: .8;
      }

      .st21 {
        fill-opacity: .3;
      }

      .st22 {
        fill-opacity: .4;
      }

      .st23 {
        fill-opacity: .2;
      }

      .st25 {
        fill: #213d52;
      }

      .st48 {
        clip-path: url(#clippath);
      }

      .st27 {
        fill: #ffd43a;
      }

      .st49 {
        fill: #021a2c;
      }
    </style>
    <clipPath id="clippath">
      <path class="st0" d="M579.6,1.6c.1-.1.3-.3.4-.4.2-.1.3-.3.5-.4.2-.1.4-.3.6-.4.2,0,.5-.2.7-.2.3,0,.6-.1.8-.2.3,0,.8,0,.8,0h187c12.5,0,22.7,10.1,22.7,22.7v549.8c0,12.5-10.1,22.7-22.7,22.7H71.3c-12.5,0-22.7-10.2-22.7-22.7V22.7C48.7,10.2,58.8,0,71.3,0h204.2c.3,0,.4,0,.7,0,.1,0,.3,0,.4,0,.3,0,.6,0,.8.1.2,0,.3.1.5.2.3.2.5.4.7.5.1.2.2.2.5.7.2.3.3.6.4,1.1,0,.3,0,.5,0,.7,0,.5,0,.8,0,1.1v5.4c0,2.9,2.3,5.2,5.2,5.2h288.7c2.9,0,5.2-2.3,5.2-5.2v-4.2s0-.9,0-1.2c0-.2,0-.4,0-.6,0-.2,0-.3,0-.5,0-.2,0-.4.1-.5,0-.2,0-.3.2-.4,0-.1.1-.3.2-.4.1-.1.2-.3.3-.4Z"/>
    </clipPath>
    <clipPath id="clippath-1">
      <path class="st0" d="M155.6,46.4h592c4.8,0,8.6,3.9,8.6,8.6v470.1c0,4.8-3.9,8.6-8.6,8.6H155.6c-4.8,0-8.6-3.9-8.6-8.6V55c0-4.8,3.9-8.6,8.6-8.6Z"/>
    </clipPath>
    <clipPath id="clippath-2">
      <circle class="st0" cx="102.9" cy="504.7" r="29"/>
    </clipPath>
    <clipPath id="clippath-3">
      <circle class="st0" cx="102.9" cy="504.9" r="21.3"/>
    </clipPath>
    <clipPath id="clippath-4">
      <circle class="st0" cx="102.9" cy="439.4" r="29"/>
    </clipPath>
    <clipPath id="clippath-5">
      <circle class="st0" cx="102.9" cy="439.5" r="21.3"/>
    </clipPath>
    <clipPath id="clippath-6">
      <circle class="st0" cx="102.9" cy="374.1" r="29"/>
    </clipPath>
    <clipPath id="clippath-7">
      <circle class="st0" cx="102.9" cy="374.2" r="21.3"/>
    </clipPath>
    <clipPath id="clippath-8">
      <circle class="st0" cx="102.9" cy="308.8" r="29"/>
    </clipPath>
    <clipPath id="clippath-9">
      <circle class="st0" cx="102.9" cy="308.9" r="21.3"/>
    </clipPath>
    <clipPath id="clippath-10">
      <circle class="st0" cx="102.9" cy="223.7" r="29"/>
    </clipPath>
    <clipPath id="clippath-11">
      <circle class="st0" cx="102.9" cy="223.8" r="21.3"/>
    </clipPath>
    <clipPath id="clippath-12">
      <circle class="st0" cx="102.9" cy="159.1" r="29"/>
    </clipPath>
    <clipPath id="clippath-13">
      <circle class="st0" cx="102.9" cy="159.2" r="21.3"/>
    </clipPath>
    <clipPath id="clippath-14">
      <circle class="st0" cx="102.9" cy="74.4" r="29"/>
    </clipPath>
    <clipPath id="clippath-15">
      <circle class="st0" cx="102.9" cy="74.5" r="21.3"/>
    </clipPath>
    <clipPath id="clippath-16">
      <path class="st0" d="M747.9,558.3c1,1,1.9,2.1,2.5,3.4h-4.4c-3,0-5.5,2.4-5.5,5.5v4.1c0,.1,0,.2,0,.3v16.1c0,2-1.6,3.6-3.6,3.6h-25.4c-2,0-3.6-1.6-3.6-3.6v-16.2c0-.1,0-.2,0-.3v-4.1c0-3-2.4-5.5-5.5-5.5h-4.3c.8-1.6,1.9-3,3.3-4.1v.7h46.5ZM713.1,573c0-.8-.7-1.5-1.5-1.5s-1.5.7-1.5,1.5v3.5c0,.8.7,1.5,1.5,1.5s1.5-.7,1.5-1.5v-3.5ZM738.2,573c0-.8-.7-1.5-1.5-1.5s-1.5.7-1.5,1.5v3.5c0,.8.7,1.5,1.5,1.5s1.5-.7,1.5-1.5v-3.5Z"/>
    </clipPath>
  </defs>
  <g>
    <path class="st14" d="M579.6,1.6c.1-.1.3-.3.4-.4.2-.1.3-.3.5-.4.2-.1.4-.3.6-.4.2,0,.5-.2.7-.2.3,0,.6-.1.8-.2.3,0,.8,0,.8,0h187c12.5,0,22.7,10.1,22.7,22.7v549.8c0,12.5-10.1,22.7-22.7,22.7H71.3c-12.5,0-22.7-10.2-22.7-22.7V22.7C48.7,10.2,58.8,0,71.3,0h204.2c.3,0,.4,0,.7,0,.1,0,.3,0,.4,0,.3,0,.6,0,.8.1.2,0,.3.1.5.2.3.2.5.4.7.5.1.2.2.2.5.7.2.3.3.6.4,1.1,0,.3,0,.5,0,.7,0,.5,0,.8,0,1.1v5.4c0,2.9,2.3,5.2,5.2,5.2h288.7c2.9,0,5.2-2.3,5.2-5.2v-4.2s0-.9,0-1.2c0-.2,0-.4,0-.6,0-.2,0-.3,0-.5,0-.2,0-.4.1-.5,0-.2,0-.3.2-.4,0-.1.1-.3.2-.4.1-.1.2-.3.3-.4Z"/>
    <g class="st48">
      <g>
        <path class="st9" d="M784.3,19.2v557c0,5.6-4.6,10.2-10.2,10.2H69.6c-5.7,0-10.2-4.6-10.2-10.2V19.2c0-5.6,4.6-10.2,10.2-10.2h704.4c5.7,0,10.2,4.6,10.2,10.2Z"/>
        <path class="st24" d="M787,10.4c-5.5,0-5.8,1.2-6,3.3,0,.1,4.3,6.5,4.9,6.8,2.8,1.4,4.8,4.6,4.1,1.4-.1-.6-.7-4-.9-4.9-.7-3.1-.1-3.9-2.2-6.6Z"/>
        <path class="st19" d="M780.8,589.3c-1.4,1.1-1.3,3.2-2.8,3.2H69.9c-1.6,0-2.8-1.4-2.8-3.2s-2.2-3.1-1.8-3.6c.5-.7,3.8.5,4.7.5h707c.3.1,7-7.8,7.4-8.2,3.1-3.7,5-1.8,4.8,2.9,0,.9-5.7,6.4-8.4,8.5Z"/>
        <path class="st18" d="M789.5,21.9l.3,554.3c-.6,1.8-.6.4-2.6.2l-3.2,1.8c0,.8-.1-2.7-.3-4.1l-.4-557.1c0-.1,2.1,2.5,2.3,2.5l1.8,1.2c2.6,1.5,2.1,1.1,2.1,1.3Z"/>
        <path class="st1" d="M273.6,11h-1.9c0-1.1-.9-1.9-1.9-1.9v-1.9c2.1,0,3.8,1.7,3.8,3.8Z"/>
        <g>
          <g>
            <path class="st10" d="M581.6,0h1.4v11.1c0,4.2-3.4,7.7-7.7,7.7h-291.9c-4.2,0-7.7-3.4-7.7-7.7V0h301.4c0,.1.1.2.1.2.1.1.4,1.4.5,1.8.2.5.3.8.3,1-.1,0-.2,0-.3,0-.3,0-.3,0-.3,0,0,0,0,0,.3,0,.1,0,.2,0,.3,0,0,.2.1.4.2.7-.1-.3-.2-.5-.2-.7,1.9-.4,3.3-.3,3.6-3Z"/>
            <path class="st1" d="M587,3.8v6.6c0,6.9-5.6,12.5-12.5,12.5h-290.3c-6.9,0-12.5-5.6-12.5-12.5V3.8h4v6.6c0,4.7,3.8,8.5,8.5,8.5h290.3c4.7,0,8.5-3.8,8.5-8.5V3.8h4Z"/>
            <path class="st10" d="M277.9,7.4h-2.1c0-2-1.7-3.7-3.8-3.7V1.6c3.2,0,5.9,2.6,5.9,5.8Z"/>
            <path class="st10" d="M586.7,1.6v2.1c-2,0-3.7,1.7-3.7,3.8h-2.1c0-3.2,2.6-5.9,5.8-5.9Z"/>
          </g>
          <rect class="st28" x="288.8" y="12.9" width="282.2" height="6"/>
        </g>
        <path class="st24" d="M65.6,591.9c6.4-1.8.6-5.5-.4-7.8,0-.2-3.5-3.2-4.3-3.3-4.2-.6-8.8-2.4-6.1.8.5.6,1.8,3.3,2.6,4.3,2.7,3.1,4.3,3.9,8.3,6.1Z"/>
        <path class="st1" d="M588.9,7.1v1.9c-1.1,0-1.9.9-1.9,1.9h-1.9c0-2.1,1.7-3.8,3.8-3.8Z"/>
      </g>
    </g>
    <path class="st10" d="M579.6,1.6c.1-.1.3-.3.4-.4.2-.1.3-.3.5-.4.2-.1.4-.3.6-.4.2,0,.5-.2.7-.2.3,0,.6-.1.8-.2.3,0,.8,0,.8,0h187c12.5,0,22.7,10.1,22.7,22.7v549.8c0,12.5-10.1,22.7-22.7,22.7H71.3c-12.5,0-22.7-10.2-22.7-22.7V22.7C48.7,10.2,58.8,0,71.3,0h204.2c.3,0,.4,0,.7,0,.1,0,.3,0,.4,0,.3,0,.6,0,.8.1.2,0,.3.1.5.2.3.2.5.4.7.5.1.2.2.2.5.7.2.3.3.6.4,1.1,0,.3,0,.5,0,.7,0,.5,0,.8,0,1.1v5.4c0,2.9,2.3,5.2,5.2,5.2h288.7c2.9,0,5.2-2.3,5.2-5.2v-4.2s0-.9,0-1.2c0-.2,0-.4,0-.6,0-.2,0-.3,0-.5,0-.2,0-.4.1-.5,0-.2,0-.3.2-.4,0-.1.1-.3.2-.4.1-.1.2-.3.3-.4ZM582.4,4h0s0,0,0,0c0,0,0,0,0,0ZM582.7,3.8s0,0-.1.1c0,0,0,0,0,.1,0,0,0,0,0,.1h0c0,.2,0,.4,0,.5,0,.3,0,1,0,1.1v4.1c0,4.9-4,8.9-8.9,8.9h-288.7c-4.9,0-8.9-4-8.9-8.9v-5.4c0-.2,0-.4,0-.7,0,0-.1,0-.2,0H71.3c-10.4,0-18.9,8.5-18.9,18.9v549.8c0,10.4,8.5,18.9,18.9,18.9h699.1c10.4,0,18.9-8.5,18.9-18.9V22.7c0-10.4-8.5-18.9-18.9-18.9h-187s-.3,0-.5,0c0,0-.2,0-.2,0ZM582.4,4c0,0,0-.1,0-.2v.2Z"/>
  </g>
  <g>
    <path class="st10" d="M756.2,55v470.1c0,4.8-3.9,8.6-8.6,8.6H155.6c-4.8,0-8.6-3.9-8.6-8.6V55c0-4.8,3.9-8.6,8.6-8.6h592c4.8,0,8.6,3.9,8.6,8.6Z"/>
    <g class="st39">
      <g>
        <rect class="st49" x="151.8" y="51.6" width="599.6" height="476.8"/>
        <path class="st3" d="M502.6,194.3l-327.6,327.5-6.6,6.5h-16.6V51.6h495.3l-79.1,79-8.2,8.1-18,17.8-11.4,11.1-27.8,26.6Z"/>
        <path class="st25" d="M514.4,52.3L151.1,414.1l.8-362.5,362.5.8Z"/>
        <path class="st12" d="M151.8,45.7v484.5c0,1.6-1.3,2.9-2.9,2.9s-2.9-1.3-2.9-2.9V45.7c0-1.6,1.3-2.9,2.9-2.9s2.9,1.3,2.9,2.9Z"/>
        <path class="st12" d="M755.8,48.5c0,1.7-1.4,3.1-3.1,3.1H147.5c-1.7,0-3.1-1.4-3.1-3.1s1.4-3.1,3.1-3.1h605.3c1.7,0,3.1,1.4,3.1,3.1Z"/>
        <path class="st14" d="M754.9,531.1c0,1.4-1.1,2.5-2.5,2.5H148.6c-1.4,0-2.5-1.1-2.5-2.5s1.1-2.5,2.5-2.5h603.8c1.4,0,2.5,1.1,2.5,2.5Z"/>
        <path class="st14" d="M756.3,48.3v482.1c0,1.3-1,2.3-2.3,2.3s-2.3-1-2.3-2.3V48.3c0-1.3,1-2.3,2.3-2.3s2.3,1,2.3,2.3Z"/>
      </g>
    </g>
  </g>
  <g id="button-menu">
    <path class="st5" d="M205.3,560.3c0,7.9-6.4,14.3-14.3,14.3h-29.3c-7.9,0-14.3-6.4-14.3-14.3s6.4-14.3,14.3-14.3h29.3c7.9,0,14.3,6.4,14.3,14.3Z"/>
    <g id="button-menu-active">
      <path class="st17" d="M205.3,560.3c0,7.9-6.4,14.3-14.3,14.3h-29.3c-7.9,0-14.3-6.4-14.3-14.3s6.4-14.3,14.3-14.3h29.3c7.9,0,14.3,6.4,14.3,14.3ZM197.8,560.3c0-4.6-3.8-8.2-8.5-8.2h-26.1c-4.6,0-8.3,3.7-8.3,8.3s4.1,8.4,8.7,8.4h25.9c4.6,0,8.3-3.9,8.3-8.5Z"/>
    </g>
    <path class="st2" d="M191.2,574.7c7.5-.5,13.5-6.8,13.4-14.5s-6.2-13.9-13.7-14.2c7.9,0,14.4,6.4,14.5,14.2s-6.3,14.3-14.2,14.5Z"/>
    <path class="st4" d="M164.7,574.6c6.1,0,18.2.2,27.4-.4,3.8-.2,7.3-2.6,8.8-4.3,5.3-5.5,5.1-13.6.3-19.5,5.2,4.8,6,14.5.3,20.1-1.6,1.6-5.4,4.2-9.2,4.2-10.8,0-21.4.3-27.5,0Z"/>
    <path class="st22" d="M161.6,546c-7.5.4-13.5,6.7-13.5,14.3s6.1,13.9,13.5,14.3c-7.9-.1-14.3-6.5-14.3-14.3s6.4-14.2,14.3-14.3Z"/>
    <path class="st23" d="M189.1,546.1c-5.6,0-18.2.1-28.1.7-3.8.2-7.5,2.2-9.1,3.6-5.5,4.8-5.4,14.5-.4,20-5.5-5.7-5.5-14.7,0-20.3s5.2-4.2,9.4-4.2c10.2,0,21.5,0,28.1.1Z"/>
    <g id="button-menu-body">
      <path class="st26" d="M197.7,560.5c0,4.6-3.7,8.3-8.3,8.3h-26c-4.6,0-8.3-3.7-8.3-8.3s3.7-8.3,8.3-8.3h26c4.6,0,8.3,3.7,8.3,8.3Z"/>
      <path class="st21" d="M189.6,568.7c3.9-.5,7-4,7-8.2s-3.1-7.7-7-8.2c4.5,0,8.2,3.7,8.2,8.2s-3.7,8.1-8.2,8.2Z"/>
      <path class="st21" d="M164.8,568.7c5-.3,19-.3,24.8-.9,2.2-.2,4-1.2,4.7-1.9,3.2-2.8,3.7-7.6,1.4-10.9,2.9,3.5,2.6,8.6-.8,11.6s-2.7,1.9-4.7,2c-7.4.3-19.7,0-25.5,0Z"/>
      <path class="st2" d="M163.2,552.2c-3.9.5-7,4-7,8.2s3.1,7.8,7,8.2c-4.5,0-8.2-3.7-8.2-8.2s3.7-8.2,8.2-8.2Z"/>
      <path class="st2" d="M189.2,552.3c-3.1.3-17.4.3-26,.6-2.2,0-4.2,1.4-4.9,2-3.2,2.9-3.7,7.7-1.2,11-3-3.4-2.7-8.6.7-11.6s2.4-2,5-2.1c7.9,0,23.2,0,26.5,0Z"/>
      <g>
        <path class="st31" d="M161.2,557.5h1.5v.8c.5-.7,1.2-1,1.9-1s.7,0,1,.2c.3.2.5.4.7.7.3-.3.6-.6.9-.7.3-.2.6-.2,1-.2s.8,0,1.2.3c.3.2.5.5.7.8.1.3.2.7.2,1.3v4h-1.6v-3.5c0-.6,0-1-.2-1.2-.2-.2-.4-.3-.7-.3s-.4,0-.6.2c-.2.1-.3.3-.4.6,0,.3-.1.7-.1,1.3v3h-1.6v-3.4c0-.6,0-1,0-1.2,0-.2-.2-.3-.3-.4-.1,0-.3-.1-.5-.1s-.5,0-.7.2c-.2.1-.3.3-.4.6,0,.3-.1.7-.1,1.3v3h-1.6v-6.2Z"/>
        <path class="st31" d="M175.6,561.7l1.6.3c-.2.6-.5,1.1-1,1.4-.4.3-1,.5-1.7.5-1.1,0-1.9-.4-2.4-1.1-.4-.6-.6-1.3-.6-2.1s.3-1.8.8-2.4c.5-.6,1.2-.9,2-.9s1.6.3,2.2.9c.5.6.8,1.5.8,2.8h-4.1c0,.5.1.9.4,1.1.3.3.6.4.9.4s.5,0,.6-.2c.2-.1.3-.4.4-.7ZM175.6,560c0-.5-.1-.8-.4-1.1-.2-.3-.5-.4-.8-.4s-.7.1-.9.4c-.2.3-.4.6-.3,1.1h2.4Z"/>
        <path class="st31" d="M184.2,563.7h-1.6v-3.2c0-.7,0-1.1-.1-1.3,0-.2-.2-.4-.3-.5-.2-.1-.3-.2-.6-.2s-.5,0-.8.2c-.2.2-.4.4-.5.6s-.1.7-.1,1.4v2.8h-1.6v-6.2h1.5v.9c.5-.7,1.2-1.1,2-1.1s.7,0,1,.2.5.3.7.5.3.4.3.7c0,.3,0,.6,0,1.1v3.8Z"/>
        <path class="st31" d="M190,563.7v-.9c-.2.3-.5.6-.9.8-.4.2-.8.3-1.2.3s-.8,0-1.1-.3c-.3-.2-.6-.4-.7-.8-.1-.3-.2-.8-.2-1.4v-3.9h1.6v2.9c0,.9,0,1.4,0,1.6,0,.2.2.3.3.5.2.1.4.2.6.2s.5,0,.8-.2c.2-.2.4-.3.5-.6,0-.2.1-.8.1-1.7v-2.6h1.6v6.2h-1.5Z"/>
      </g>
    </g>
  </g>
  <g id="button-down">
    <circle class="st30" cx="102.9" cy="504.7" r="29" transform="translate(-411.8 525.4) rotate(-80.8)"/>
    <g class="st42">
      <g>
        <g id="button-down-body">
          <circle class="st29" cx="102.9" cy="504.9" r="21.3"/>
          <g class="st40">
            <g>
              <path class="st7" d="M102.4,519l-14.1-23h28.1l-14.1,23ZM102.4,511.6l7.2-11.7h-14.4l7.2,11.7Z"/>
              <path class="st6" d="M115.8,487.9c-9.1-6.1-21.8-4.3-28.8,4.6s-5.7,21.7,2.5,29c-9.3-7.5-11.1-21-3.9-30.2s20.7-10.7,30.3-3.5Z"/>
              <path class="st6" d="M124,504.6c-.8-10.9-10.2-19.8-21.4-19.7-11.3,0-20.5,9-21.3,19.9.1-12,9.6-21.7,21.3-21.8s21.2,9.6,21.5,21.6Z"/>
              <path class="st6" d="M100.9,483.4c-10.8,1.6-19,11.6-18.1,22.9s10.5,19.8,21.4,19.7c-12,.8-22.4-8-23.3-19.6s8-21.9,19.9-23Z"/>
              <path class="st8" d="M91.4,522.9c9.3,5.5,21.7,2.8,28.2-6.5s4.5-21.9-3.8-28.6c9.5,6.8,11.9,20,5.3,29.6-6.6,9.6-19.9,12-29.6,5.5Z"/>
            </g>
          </g>
        </g>
        <g id="button-down-active">
          <path class="st17" d="M102.8,475.9c16,0,29,13,29,29s-13,29-29,29-29-13-29-29,13-29,29-29ZM102.8,483.2c12,0,21.7,9.7,21.7,21.7s-9.7,21.7-21.7,21.7-21.7-9.7-21.7-21.7,9.7-21.7,21.7-21.7Z"/>
        </g>
        <path class="st2" d="M103.1,534.2c15.1-.9,27.3-13.9,27.2-29.5s-12.6-28.4-27.7-29c16,.1,29.2,13,29.3,29,.2,16-12.7,29.1-28.8,29.5Z"/>
        <path class="st2" d="M76.7,518.2c7.5,13.2,24.5,18.4,38.5,11.3s19.9-23.8,13.7-37.7c7,14.4,1.3,31.9-13,39.1-14.3,7.2-31.8,1.5-39.2-12.7Z"/>
        <path class="st22" d="M116,478.9c-13.9-6.2-30.7-.3-37.7,13.7-7.1,13.9-1.9,31,11.2,38.5-14.2-7.5-19.9-25-12.7-39.2s24.7-20,39.2-12.9Z"/>
      </g>
    </g>
  </g>
  <g id="button-up">
    <circle class="st30" cx="102.9" cy="439.4" r="29" transform="translate(-347.3 470.6) rotate(-80.8)"/>
    <g class="st41">
      <g>
        <g id="button-up-body">
          <circle class="st29" cx="102.9" cy="439.5" r="21.3"/>
          <g class="st47">
            <g>
              <path class="st7" d="M102.4,424.7l14.1,23h-28.1l14.1-23ZM102.4,432.1l-7.2,11.7h14.4l-7.2-11.7Z"/>
              <path class="st6" d="M115.8,422.5c-9.1-6.1-21.8-4.3-28.8,4.6s-5.7,21.7,2.5,29c-9.3-7.5-11.1-21-3.9-30.2s20.7-10.7,30.3-3.5Z"/>
              <path class="st6" d="M124,439.3c-.8-10.9-10.2-19.8-21.4-19.7-11.3,0-20.5,9-21.3,19.9.1-12,9.6-21.7,21.3-21.8s21.2,9.6,21.5,21.6Z"/>
              <path class="st6" d="M100.9,418.1c-10.8,1.6-19,11.6-18.1,22.9s10.5,19.8,21.4,19.7c-12,.8-22.4-8-23.3-19.6s8-21.9,19.9-23Z"/>
              <path class="st8" d="M91.4,457.5c9.3,5.5,21.7,2.8,28.2-6.5s4.5-21.9-3.8-28.6c9.5,6.8,11.9,20,5.3,29.6-6.6,9.6-19.9,12-29.6,5.5Z"/>
            </g>
          </g>
        </g>
        <g id="button-up-active">
          <path class="st17" d="M102.8,410.6c16,0,29,13,29,29s-13,29-29,29-29-13-29-29,13-29,29-29ZM102.8,417.8c12,0,21.7,9.7,21.7,21.7s-9.7,21.7-21.7,21.7-21.7-9.7-21.7-21.7,9.7-21.7,21.7-21.7Z"/>
        </g>
        <path class="st2" d="M103.1,468.9c15.1-.9,27.3-13.9,27.2-29.5-.2-15.6-12.6-28.4-27.7-29,16,.1,29.2,13,29.3,29,.2,16-12.7,29.1-28.8,29.5Z"/>
        <path class="st2" d="M76.7,452.8c7.5,13.2,24.5,18.4,38.5,11.3s19.9-23.8,13.7-37.7c7,14.4,1.3,31.9-13,39.1-14.3,7.2-31.8,1.5-39.2-12.7Z"/>
        <path class="st22" d="M116,413.5c-13.9-6.2-30.7-.3-37.7,13.7-7.1,13.9-1.9,31,11.2,38.5-14.2-7.5-19.9-25-12.7-39.2s24.7-20,39.2-12.9Z"/>
      </g>
    </g>
  </g>
  <g id="button-right">
    <circle class="st30" cx="102.9" cy="374.1" r="29" transform="translate(-282.9 415.7) rotate(-80.8)"/>
    <g class="st44">
      <g>
        <g id="button-right-body">
          <circle class="st29" cx="102.9" cy="374.2" r="21.3"/>
          <g class="st43">
            <g>
              <path class="st7" d="M117.8,374.5l-23,14.1v-28.1l23,14.1ZM110.4,374.5l-11.7-7.2v14.4l11.7-7.2Z"/>
              <path class="st6" d="M115.8,357.2c-9.1-6.1-21.8-4.3-28.8,4.6s-5.7,21.7,2.5,29c-9.3-7.5-11.1-21-3.9-30.2s20.7-10.7,30.3-3.5Z"/>
              <path class="st6" d="M124,373.9c-.8-10.9-10.2-19.8-21.4-19.7-11.3,0-20.5,9-21.3,19.9.1-12,9.6-21.7,21.3-21.8s21.2,9.6,21.5,21.6Z"/>
              <path class="st6" d="M100.9,352.7c-10.8,1.6-19,11.6-18.1,22.9s10.5,19.8,21.4,19.7c-12,.8-22.4-8-23.3-19.6s8-21.9,19.9-23Z"/>
              <path class="st8" d="M91.4,392.2c9.3,5.5,21.7,2.8,28.2-6.5s4.5-21.9-3.8-28.6c9.5,6.8,11.9,20,5.3,29.6-6.6,9.6-19.9,12-29.6,5.5Z"/>
            </g>
          </g>
        </g>
        <g id="button-right-active">
          <path class="st17" d="M102.8,345.3c16,0,29,13,29,29s-13,29-29,29-29-13-29-29,13-29,29-29ZM102.8,352.5c12,0,21.7,9.7,21.7,21.7s-9.7,21.7-21.7,21.7-21.7-9.7-21.7-21.7,9.7-21.7,21.7-21.7Z"/>
        </g>
        <path class="st2" d="M103.1,403.6c15.1-.9,27.3-13.9,27.2-29.5-.2-15.6-12.6-28.4-27.7-29,16,.1,29.2,13,29.3,29,.2,16-12.7,29.1-28.8,29.5Z"/>
        <path class="st2" d="M76.7,387.5c7.5,13.2,24.5,18.4,38.5,11.3,14-7,19.9-23.8,13.7-37.7,7,14.4,1.3,31.9-13,39.1-14.3,7.2-31.8,1.5-39.2-12.7Z"/>
        <path class="st22" d="M116,348.2c-13.9-6.2-30.7-.3-37.7,13.7-7.1,13.9-1.9,31,11.2,38.5-14.2-7.5-19.9-25-12.7-39.2s24.7-20,39.2-12.9Z"/>
      </g>
    </g>
  </g>
  <g id="button-left">
    <circle class="st30" cx="102.9" cy="308.8" r="29" transform="translate(-218.4 360.8) rotate(-80.8)"/>
    <g class="st46">
      <g>
        <g id="button-left-body">
          <circle class="st29" cx="102.9" cy="308.9" r="21.3"/>
          <g class="st45">
            <g>
              <path class="st7" d="M87.6,309.1l23-14.1v28.1l-23-14.1ZM94.3,309.1l12.8,7.9v-15.7l-12.8,7.9Z"/>
              <path class="st6" d="M115.8,291.9c-9.1-6.1-21.8-4.3-28.8,4.6s-5.7,21.7,2.5,29c-9.3-7.5-11.1-21-3.9-30.2s20.7-10.7,30.3-3.5Z"/>
              <path class="st6" d="M124,308.6c-.8-10.9-10.2-19.8-21.4-19.7s-20.5,9-21.3,19.9c.1-12,9.6-21.7,21.3-21.8s21.2,9.6,21.5,21.6Z"/>
              <path class="st6" d="M100.9,287.4c-10.8,1.6-19,11.6-18.1,22.9s10.5,19.8,21.4,19.7c-12,.8-22.4-8-23.3-19.6s8-21.9,19.9-23Z"/>
              <path class="st8" d="M91.4,326.9c9.3,5.5,21.7,2.8,28.2-6.5s4.5-21.9-3.8-28.6c9.5,6.8,11.9,20,5.3,29.6-6.6,9.6-19.9,12-29.6,5.5Z"/>
            </g>
          </g>
        </g>
        <g id="button-left-active">
          <path class="st17" d="M102.8,279.9c16,0,29,13,29,29s-13,29-29,29-29-13-29-29,13-29,29-29ZM102.8,287.2c12,0,21.7,9.7,21.7,21.7s-9.7,21.7-21.7,21.7-21.7-9.7-21.7-21.7,9.7-21.7,21.7-21.7Z"/>
        </g>
        <path class="st2" d="M103.1,338.2c15.1-.9,27.3-13.9,27.2-29.5-.2-15.6-12.6-28.4-27.7-29,16,.1,29.2,13,29.3,29,.2,16-12.7,29.1-28.8,29.5Z"/>
        <path class="st2" d="M76.7,322.2c7.5,13.2,24.5,18.4,38.5,11.3s19.9-23.8,13.7-37.7c7,14.4,1.3,31.9-13,39.1-14.3,7.2-31.8,1.5-39.2-12.7Z"/>
        <path class="st22" d="M116,282.9c-13.9-6.2-30.7-.3-37.7,13.7s-1.9,31,11.2,38.5c-14.2-7.5-19.9-25-12.7-39.2,7.2-14.2,24.7-20,39.2-12.9Z"/>
      </g>
    </g>
  </g>
  <g id="button-b">
    <circle class="st30" cx="102.9" cy="223.7" r="29" transform="translate(-134.4 289.4) rotate(-80.8)"/>
    <g class="st34">
      <g>
        <g id="button-b-body">
          <circle class="st29" cx="102.9" cy="223.8" r="21.3"/>
          <g class="st32">
            <g>
              <path class="st31" d="M93.2,210.2h10c2,0,3.5.1,4.5.3,1,.1,1.9.5,2.6,1,.8.5,1.4,1.2,1.9,2.1.5.9.8,1.8.8,2.9s-.3,2.3-1,3.3c-.6,1-1.5,1.7-2.6,2.2,1.5.4,2.7,1.2,3.5,2.3.8,1.1,1.2,2.3,1.2,3.8s-.3,2.3-.8,3.4c-.5,1.1-1.3,1.9-2.2,2.6-.9.7-2,1.1-3.4,1.2-.8.1-2.9.1-6.1.2h-8.6v-25.2ZM98.3,214.4v5.8h3.3c2,0,3.2,0,3.7-.1.9-.1,1.6-.4,2.1-.9s.7-1.2.7-2-.2-1.4-.6-1.9c-.5-.5-1.1-.8-1.9-.9-.5,0-1.9-.1-4.3-.1h-2.9ZM98.3,224.4v6.7h4.7c1.8,0,3,0,3.5-.1.7-.1,1.4-.5,1.8-1,.5-.6.7-1.3.7-2.1s-.2-1.4-.5-1.9c-.4-.5-.9-.9-1.6-1.2-.7-.2-2.2-.4-4.5-.4h-4.1Z"/>
              <path class="st6" d="M115.8,206.8c-9.1-6.1-21.8-4.3-28.8,4.6s-5.7,21.7,2.5,29c-9.3-7.5-11.1-21-3.9-30.2s20.7-10.7,30.3-3.5Z"/>
              <path class="st6" d="M124,223.6c-.8-10.9-10.2-19.8-21.4-19.7s-20.5,9-21.3,19.9c.1-12,9.6-21.7,21.3-21.8s21.2,9.6,21.5,21.6Z"/>
              <path class="st6" d="M100.9,202.4c-10.8,1.6-19,11.6-18.1,22.9s10.5,19.8,21.4,19.7c-12,.8-22.4-8-23.3-19.6s8-21.9,19.9-23Z"/>
              <path class="st8" d="M91.4,241.9c9.3,5.5,21.7,2.8,28.2-6.5s4.5-21.9-3.8-28.6c9.5,6.8,11.9,20,5.3,29.6s-19.9,12-29.6,5.5Z"/>
            </g>
          </g>
        </g>
        <g id="button-b-active">
          <path class="st17" d="M102.8,194.9c16,0,29,13,29,29s-13,29-29,29-29-13-29-29,13-29,29-29ZM102.8,202.1c12,0,21.7,9.7,21.7,21.7s-9.7,21.7-21.7,21.7-21.7-9.7-21.7-21.7,9.7-21.7,21.7-21.7Z"/>
        </g>
        <path class="st2" d="M103.1,253.2c15.1-.9,27.3-13.9,27.2-29.5-.2-15.6-12.6-28.4-27.7-29,16,.1,29.2,13,29.3,29s-12.7,29.1-28.8,29.5Z"/>
        <path class="st2" d="M76.7,237.1c7.5,13.2,24.5,18.4,38.5,11.3s19.9-23.8,13.7-37.7c7,14.4,1.3,31.9-13,39.1s-31.8,1.5-39.2-12.7Z"/>
        <path class="st22" d="M116,197.8c-13.9-6.2-30.7-.3-37.7,13.7-7.1,13.9-1.9,31,11.2,38.5-14.2-7.5-19.9-25-12.7-39.2s24.7-20,39.2-12.9Z"/>
      </g>
    </g>
  </g>
  <g id="button-a">
    <circle class="st30" cx="102.9" cy="159.1" r="29" transform="translate(-70.6 235.2) rotate(-80.8)"/>
    <g class="st38">
      <g>
        <g id="button-a-body">
          <circle class="st29" cx="102.9" cy="159.2" r="21.3"/>
          <g class="st36">
            <g>
              <path class="st31" d="M115.3,170.1h-5.5l-2.2-5.7h-10.1l-2.1,5.7h-5.4l9.8-25.2h5.4l10,25.2ZM105.9,160.2l-3.4-9.3-3.4,9.3h6.9Z"/>
              <path class="st6" d="M115.8,142.2c-9.1-6.1-21.8-4.3-28.8,4.6s-5.7,21.7,2.5,29c-9.3-7.5-11.1-21-3.9-30.2s20.7-10.7,30.3-3.5Z"/>
              <path class="st6" d="M124,159c-.8-10.9-10.2-19.8-21.4-19.7s-20.5,9-21.3,19.9c.1-12,9.6-21.7,21.3-21.8s21.2,9.6,21.5,21.6Z"/>
              <path class="st6" d="M100.9,137.7c-10.8,1.6-19,11.6-18.1,22.9s10.5,19.8,21.4,19.7c-12,.8-22.4-8-23.3-19.6s8-21.9,19.9-23Z"/>
              <path class="st8" d="M91.4,177.2c9.3,5.5,21.7,2.8,28.2-6.5s4.5-21.9-3.8-28.6c9.5,6.8,11.9,20,5.3,29.6s-19.9,12-29.6,5.5Z"/>
            </g>
          </g>
        </g>
        <g id="button-a-active">
          <path class="st17" d="M102.8,130.3c16,0,29,13,29,29s-13,29-29,29-29-13-29-29,13-29,29-29ZM102.8,137.5c12,0,21.7,9.7,21.7,21.7s-9.7,21.7-21.7,21.7-21.7-9.7-21.7-21.7,9.7-21.7,21.7-21.7Z"/>
        </g>
        <path class="st2" d="M103.1,188.6c15.1-.9,27.3-13.9,27.2-29.5-.2-15.6-12.6-28.4-27.7-29,16,.1,29.2,13,29.3,29s-12.7,29.1-28.8,29.5Z"/>
        <path class="st2" d="M76.7,172.5c7.5,13.2,24.5,18.4,38.5,11.3s19.9-23.8,13.7-37.7c7,14.4,1.3,31.9-13,39.1-14.3,7.2-31.8,1.5-39.2-12.7Z"/>
        <path class="st22" d="M116,133.2c-13.9-6.2-30.7-.3-37.7,13.7-7.1,13.9-1.9,31,11.2,38.5-14.2-7.5-19.9-25-12.7-39.2s24.7-20,39.2-12.9Z"/>
      </g>
    </g>
  </g>
  <g id="button-power">
    <circle class="st30" cx="102.9" cy="74.4" r="29" transform="translate(13 164) rotate(-80.8)"/>
    <g class="st37">
      <g>
        <g id="button-power-body">
          <circle class="st29" cx="102.9" cy="74.5" r="21.3"/>
          <g class="st35">
            <g>
              <path class="st13" d="M111.7,64.4h0c2.9,2.5,4.7,6.2,4.7,10.1,0,7.4-6,13.3-13.3,13.3s-13.3-6-13.3-13.3,1.8-7.7,4.7-10.2h0c.3-.3.7-.4,1.2-.4,1,0,1.8.8,1.8,1.8s-.3,1.1-.7,1.4c-2.1,1.8-3.4,4.5-3.4,7.3,0,5.3,4.3,9.7,9.7,9.7s9.7-4.3,9.7-9.7-1.3-5.5-3.4-7.4c-.4-.3-.7-.8-.7-1.4,0-1,.8-1.8,1.8-1.8s.9.2,1.2.5ZM105,59.8v15.1c0,1.1-.9,1.9-1.9,1.9s-1.9-.9-1.9-1.9v-15.1c0-1.1.9-1.9,1.9-1.9s1.9.9,1.9,1.9Z"/>
              <path class="st6" d="M115.8,57.5c-9.1-6.1-21.8-4.3-28.8,4.6s-5.7,21.7,2.5,29c-9.3-7.5-11.1-21-3.9-30.2s20.7-10.7,30.3-3.5Z"/>
              <path class="st6" d="M124,74.3c-.8-10.9-10.2-19.8-21.4-19.7-11.3,0-20.5,9-21.3,19.9.1-12,9.6-21.7,21.3-21.8,11.7,0,21.2,9.6,21.5,21.6Z"/>
              <path class="st6" d="M100.9,53c-10.8,1.6-19,11.6-18.1,22.9s10.5,19.8,21.4,19.7c-12,.8-22.4-8-23.3-19.6s8-21.9,19.9-23Z"/>
              <path class="st8" d="M91.4,92.5c9.3,5.5,21.7,2.8,28.2-6.5s4.5-21.9-3.8-28.6c9.5,6.8,11.9,20,5.3,29.6s-19.9,12-29.6,5.5Z"/>
            </g>
          </g>
        </g>
        <g id="button-power-on">
          <path class="st16" d="M102.8,45.6c16,0,29,13,29,29s-13,29-29,29-29-13-29-29,13-29,29-29ZM102.8,52.8c12,0,21.7,9.7,21.7,21.7s-9.7,21.7-21.7,21.7-21.7-9.7-21.7-21.7,9.7-21.7,21.7-21.7Z"/>
        </g>
        <path class="st2" d="M103.1,103.9c15.1-.9,27.3-13.9,27.2-29.5-.2-15.6-12.6-28.4-27.7-29,16,.1,29.2,13,29.3,29,.2,16-12.7,29.1-28.8,29.5Z"/>
        <path class="st2" d="M76.7,87.8c7.5,13.2,24.5,18.4,38.5,11.3s19.9-23.8,13.7-37.7c7,14.4,1.3,31.9-13,39.1s-31.8,1.5-39.2-12.7Z"/>
        <path class="st22" d="M116,48.5c-13.9-6.2-30.7-.3-37.7,13.7-7.1,13.9-1.9,31,11.2,38.5-14.2-7.5-19.9-25-12.7-39.2s24.7-20,39.2-12.9Z"/>
      </g>
    </g>
  </g>
  <g id="jacdac-port">
    <path class="st10" d="M697,594.4v-22.9c0-6.2.8-12.8,7.1-12.8l41.7.4c6.2,0,5.7,6.1,5.7,12.3v22.9h-54.5Z"/>
    <g>
      <path class="st11" d="M747.9,558.3c1,1,1.9,2.1,2.5,3.4h-4.4c-3,0-5.5,2.4-5.5,5.5v4.1c0,.1,0,.2,0,.3v16.1c0,2-1.6,3.6-3.6,3.6h-25.4c-2,0-3.6-1.6-3.6-3.6v-16.2c0-.1,0-.2,0-.3v-4.1c0-3-2.4-5.5-5.5-5.5h-4.3c.8-1.6,1.9-3,3.3-4.1v.7h46.5ZM713.1,573c0-.8-.7-1.5-1.5-1.5s-1.5.7-1.5,1.5v3.5c0,.8.7,1.5,1.5,1.5s1.5-.7,1.5-1.5v-3.5ZM738.2,573c0-.8-.7-1.5-1.5-1.5s-1.5.7-1.5,1.5v3.5c0,.8.7,1.5,1.5,1.5s1.5-.7,1.5-1.5v-3.5Z"/>
      <g class="st33">
        <g>
          <path class="st27" d="M728.3,566c-.4-.5-.6-1.1-.6-1.7,0-1.5,1.3-2.8,2.8-2.8s2.8,1.3,2.8,2.8-.2,1.3-.6,1.7v1.4s0,0,0,0v18.2c0,.9-.8,1.7-1.7,1.7h-1.1c-.9,0-1.7-.8-1.7-1.7v-18h0v-1.7ZM730.3,565.8h.6c.7-.1,1.3-.8,1.3-1.6s-.7-1.6-1.6-1.6-1.6.7-1.6,1.6.5,1.4,1.3,1.6ZM722,566c-.4-.5-.6-1.1-.6-1.7,0-1.5,1.3-2.8,2.8-2.8s2.8,1.3,2.8,2.8-.2,1.2-.6,1.7v1.5h0v18.2c0,.9-.8,1.7-1.7,1.7h-1.1c-.9,0-1.7-.8-1.7-1.7v-18h0v-1.7ZM723.9,565.8h.6c.7-.1,1.3-.8,1.3-1.6s-.7-1.6-1.6-1.6-1.6.7-1.6,1.6.5,1.4,1.3,1.6ZM715.6,566c-.4-.5-.6-1.1-.6-1.8,0-1.5,1.3-2.8,2.8-2.8s2.8,1.3,2.8,2.8-.2,1.2-.6,1.7h0v1.8h0v15.5c0,.9-.8,1.7-1.7,1.7h-1.1c-.9,0-1.7-.8-1.7-1.7v-15.7s0,0,0,0v-1.4ZM717.5,565.8h.6c.7-.1,1.3-.8,1.3-1.6s-.7-1.6-1.6-1.6-1.6.7-1.6,1.6.5,1.4,1.3,1.6Z"/>
          <g>
            <circle cx="717.8" cy="564.2" r="1.6"/>
            <circle cx="724.2" cy="564.2" r="1.6"/>
            <circle cx="730.6" cy="564.2" r="1.6"/>
          </g>
        </g>
      </g>
    </g>
    <path class="st20" d="M747.9,559.1l5.7,10.1h-59.5l6-10.1h47.9Z"/>
    <path class="st15" d="M692.8,591.4v-24.8c0-6.8,5.5-12.3,12.3-12.3h38.2c6.8,0,12.3,5.5,12.3,12.3v24.8h-4.9v-24.8c0-4.1-3.3-7.4-7.4-7.4h-38.2c-4.1,0-7.4,3.3-7.4,7.4v24.8h-4.9Z"/>
    <path class="st10" d="M695.1,594.8l-.3-3.2c.7,0,1.4-.4,2-.9s.9-1.2.9-2l3.2.3c-.2,1.5-.8,2.9-1.9,3.9s-2.4,1.7-3.9,1.9Z"/>
    <path class="st10" d="M747.4,588.8l3.2-.3c0,.7.4,1.4.9,2s1.2.9,2,.9l-.3,3.2c-1.5-.2-2.9-.8-3.9-1.9s-1.7-2.4-1.9-3.9Z"/>
  </g>
  <path class="st7" d="M716.4,548.5h-1.5v-1h0c-.5.8-1.1,1.2-2,1.2s-1.2-.2-1.5-.5c-.4-.4-.5-.8-.5-1.4,0-1.2.7-2,2.2-2.2l2-.3c0-.9-.4-1.4-1.3-1.4s-1.5.3-2.1.8v-1.3c.7-.4,1.5-.6,2.4-.6,1.7,0,2.5.8,2.5,2.5v4.3ZM714.9,545.2l-1.4.2c-.4,0-.8.2-1,.3-.2.2-.3.4-.3.8s0,.5.3.7c.2.2.5.3.8.3s.8-.2,1.1-.5c.3-.3.5-.7.5-1.2v-.6ZM722.9,548.2c-.5.3-1.2.5-1.9.5s-1.8-.3-2.4-.9c-.6-.6-.9-1.4-.9-2.4s.3-2,1-2.6c.7-.7,1.5-1,2.6-1s1.1.1,1.6.3v1.4c-.5-.3-1-.5-1.5-.5s-1.2.2-1.6.6c-.4.4-.6,1-.6,1.7s.2,1.2.6,1.6c.4.4.9.6,1.5.6s1-.2,1.5-.6v1.3ZM730.4,548.5h-1.5v-1.1h0c-.5.9-1.2,1.3-2.2,1.3s-1.5-.3-2-.9c-.5-.6-.7-1.4-.7-2.4s.3-2,.8-2.6c.5-.7,1.3-1,2.2-1s1.5.4,1.9,1.1h0v-4.1h1.5v9.8ZM728.9,545.4v-.9c0-.5-.2-.9-.5-1.2-.3-.3-.7-.5-1.2-.5s-1,.2-1.3.6c-.3.4-.5,1-.5,1.7s.2,1.2.5,1.6c.3.4.7.6,1.2.6s.9-.2,1.2-.6c.3-.4.5-.9.5-1.4ZM737.5,548.5h-1.5v-1h0c-.5.8-1.1,1.2-2,1.2s-1.2-.2-1.5-.5c-.4-.4-.5-.8-.5-1.4,0-1.2.7-2,2.2-2.2l2-.3c0-.9-.4-1.4-1.3-1.4s-1.5.3-2.1.8v-1.3c.7-.4,1.5-.6,2.4-.6,1.7,0,2.5.8,2.5,2.5v4.3ZM736,545.2l-1.4.2c-.4,0-.8.2-1,.3-.2.2-.3.4-.3.8s0,.5.3.7c.2.2.5.3.8.3s.8-.2,1.1-.5c.3-.3.5-.7.5-1.2v-.6ZM744,548.2c-.5.3-1.2.5-1.9.5s-1.8-.3-2.4-.9c-.6-.6-.9-1.4-.9-2.4s.3-2,1-2.6c.7-.7,1.5-1,2.6-1s1.1.1,1.6.3v1.4c-.5-.3-1-.5-1.5-.5s-1.2.2-1.6.6c-.4.4-.6,1-.6,1.7s.2,1.2.6,1.6c.4.4.9.6,1.5.6s1-.2,1.5-.6v1.3ZM709.3,547.3c0,1.6-.3,2.9-1,3.7-.7.9-1.6,1.3-2.7,1.3s-1,0-1.3-.2v-1.6c.3.2.8.4,1.3.4,1.4,0,2.1-1.2,2.1-3.6v-8.7h1.6v8.7Z"/>
</svg>